<svg width="1148" height="370" xmlns="http://www.w3.org/2000/svg" xmlns:xlink="http://www.w3.org/1999/xlink" xml:space="preserve" overflow="hidden"><g transform="translate(-708 -1014)"><path d="M2.57427e-06-6.875 929.446-6.87465 929.446 6.87535-2.57427e-06 6.875ZM922.572-20.6247 963.822 0.000360892 922.572 20.6253Z" fill="#FFC000" transform="matrix(-1 0 0 1 1714.82 1341)"/><path d="M6.875-9.86035e-06 6.87531 217.253-6.87469 217.253-6.875 9.86035e-06ZM20.6253 210.378 0.000360892 251.628-20.6247 210.378Z" fill="#FFC000" transform="matrix(1 0 0 -1 1714 1341.63)"/><text fill="#FFC000" font-family="Aptos,Aptos_MSFontService,sans-serif" font-weight="700" font-size="83" transform="matrix(1 0 0 1 764.604 1300)">x (Brückenlängsachse)</text><text fill="#FFC000" font-family="Aptos,Aptos_MSFontService,sans-serif" font-weight="700" font-size="83" transform="matrix(1 0 0 1 1765.77 1115)">y</text></g></svg>