<?xml version="1.0" encoding="UTF-8" standalone="no"?>
<svg
   xmlns:dc="http://purl.org/dc/elements/1.1/"
   xmlns:cc="http://creativecommons.org/ns#"
   xmlns:rdf="http://www.w3.org/1999/02/22-rdf-syntax-ns#"
   xmlns:svg="http://www.w3.org/2000/svg"
   xmlns="http://www.w3.org/2000/svg"
   viewBox="0 0 682.65015 162.14174"
   height="162.14174"
   width="682.65015"
   xml:space="preserve"
   id="svg2"
   version="1.1"><metadata
     id="metadata8"><rdf:RDF><cc:Work
         rdf:about=""><dc:format>image/svg+xml</dc:format><dc:type
           rdf:resource="http://purl.org/dc/dcmitype/StillImage" /></cc:Work></rdf:RDF></metadata><defs
     id="defs6"><clipPath
       id="clipPath14"
       clipPathUnits="userSpaceOnUse"><path
         id="path12"
         d="M 0,0 H 540.34018 V 149.95276 H 0 Z" /></clipPath><clipPath
       id="clipPath22"
       clipPathUnits="userSpaceOnUse"><path
         id="path20"
         d="M 1064.436,1785.039 H 5331 V 2798.425 H 1064.436 Z" /></clipPath></defs><g
     clip-path="url(#clipPath14)"
     transform="matrix(1.3333333,0,0,-1.3333333,-18.897695,181.03931)"
     id="g10"><g
       transform="matrix(0.12,0,0,0.12,-113.55905,-200.03149)"
       id="g16"><g
         clip-path="url(#clipPath22)"
         id="g18"><g
           transform="translate(1278,1993.0001)"
           id="g24"><path
             id="path26"
             style="fill:#000000;fill-opacity:1;fill-rule:nonzero;stroke:none"
             d="m 0,0 h -11 l -10,1 -11,1 -10,1 -10,1 -10,2 -9,2 -9,3 -9,2 -9,4 -9,3 -8,4 -8,4 -9,5 -8,5 -8,5 -8,6 -7,5 -8,7 -7,6 -7,7 -7,7 -7,8 -6,7 -7,8 -1,2 46,36 6,-8 7,-8 7,-8 7,-7 8,-7 7,-6 8,-6 7,-5 8,-5 8,-5 2,-1 8,-4 9,-4 9,-4 9,-2 9,-3 10,-2 9,-2 10,-1 11,-1 H 2 5 16 l 11,1 11,1 10,2 10,2 9,3 8,3 9,4 7,4 7,5 5,3 7,6 7,7 5,7 5,8 4,9 3,9 2,9 1,10 1,11 v 1 l -1,11 -1,10 -2,10 -3,9 -4,8 -4,8 -6,7 -5,6 -6,6 -7,4 -7,5 -8,4 -8,3 -10,4 -10,3 -11,2 -11,3 -10,1 -45,8 -11,1 -10,2 -10,3 -10,2 -9,3 -10,2 -9,3 -9,4 -8,3 -3,2 -9,4 -9,5 -9,6 -7,5 -7,7 -7,7 -6,7 -5,8 h -1 l -4,8 -4,8 -4,8 -3,9 -2,9 -2,10 -1,10 -1,11 v 9 10 l 1,11 1,10 2,10 3,9 3,9 3,9 4,8 5,7 5,8 6,7 6,6 7,6 7,6 1,1 7,5 8,4 8,5 9,3 8,4 9,3 9,3 9,3 10,2 10,2 10,1 10,1 10,1 h 11 6 11 11 l 10,-1 10,-1 10,-2 9,-1 9,-2 8,-3 h 3 l 10,-4 9,-3 10,-4 8,-5 9,-4 8,-5 8,-6 8,-6 7,-6 8,-7 7,-7 7,-7 6,-7 3,-4 -41,-38 -6,7 -6,7 -7,6 -7,7 -8,6 -8,6 -9,6 -6,4 -7,4 -8,3 -8,4 -9,3 -9,2 -10,2 -10,1 -11,1 -11,1 H -6 -18 l -11,-1 -10,-1 -10,-2 -10,-2 -9,-3 -8,-3 -8,-4 -7,-5 -7,-5 -7,-6 -7,-7 -5,-7 -5,-8 -4,-8 -3,-9 -1,-10 -2,-10 v -7 l 1,-11 1,-11 2,-10 3,-9 4,-8 5,-7 5,-7 7,-6 3,-2 6,-4 7,-4 7,-4 9,-4 9,-3 9,-4 10,-3 11,-2 12,-2 8,-2 45,-7 12,-2 11,-2 11,-2 10,-3 10,-3 10,-3 9,-3 9,-4 8,-4 8,-4 8,-5 7,-4 6,-5 6,-5 7,-7 6,-7 5,-7 5,-8 4,-8 3,-8 3,-9 3,-10 2,-10 1,-10 1,-10 v -11 -11 l -1,-10 -1,-11 -2,-9 -2,-10 -3,-9 -4,-8 -3,-9 -5,-8 -2,-4 -6,-8 -6,-7 -6,-8 -7,-6 -8,-6 -7,-6 -9,-6 -8,-4 -10,-5 h -1 L 98,16 90,13 81,10 72,8 63,6 53,4 43,3 33,2 23,1 12,0 H 1 Z" /><g
             transform="translate(565.00004,12.99998)"
             id="g28"><path
               id="path30"
               style="fill:#000000;fill-opacity:1;fill-rule:nonzero;stroke:none"
               d="m 0,0 h -110 l -11,1 -10,1 -9,3 -8,5 -7,5 -5,5 -6,7 -5,7 -3,9 -3,9 -1,10 v 6 432 h -97 v 54 h 63 l 12,1 10,3 7,4 3,2 3,7 3,9 1,11 v 6 112 h 56 V 554 H 9 V 500 H -117 V 54 H 0 Z" /><g
               transform="translate(600.99997)"
               id="g32"><path
                 id="path34"
                 style="fill:#000000;fill-opacity:1;fill-rule:nonzero;stroke:none"
                 d="m 0,0 h -63 l -10,1 -10,1 -9,3 -9,4 -3,2 -8,6 -6,7 -5,8 -4,7 -3,9 -2,9 -1,10 -1,10 v 5 6 h -4 l -4,-9 -5,-9 -5,-8 -5,-8 -6,-8 -7,-7 -7,-7 -7,-6 -8,-6 -7,-5 -8,-4 -7,-5 -9,-4 -8,-3 -9,-3 -9,-2 -10,-3 -10,-1 -10,-2 h -11 l -10,-1 h -6 -12 l -11,1 -11,1 -10,1 -10,2 -10,2 -9,3 -9,2 -9,4 -8,3 -8,4 -8,5 -7,5 -7,5 -6,5 h -1 l -6,7 -6,7 -6,7 -5,7 -5,8 -4,8 -3,9 -4,9 -2,9 -2,9 -2,10 -1,11 -1,10 v 10 10 l 1,11 1,9 2,10 3,9 3,9 4,9 4,8 5,8 1,2 5,7 5,7 7,7 7,6 7,6 8,6 9,5 9,5 10,4 5,2 8,3 8,3 8,2 8,2 9,2 10,2 9,1 10,2 10,1 11,1 h 11 l 12,1 h 11 4 128 v 65 l -1,11 v 11 l -2,11 -1,10 -3,10 -3,9 -3,8 -4,8 -4,8 -5,7 -6,6 -4,5 -6,5 -7,5 -7,5 -8,4 -8,4 -9,3 -9,3 -10,2 -10,1 -11,2 h -11 -10 -11 l -11,-1 -10,-1 -10,-2 -9,-2 -9,-3 -9,-3 -8,-4 -8,-4 -6,-3 -8,-6 -8,-6 -7,-6 -7,-6 -6,-8 -6,-7 -6,-8 -6,-9 -5,-8 -2,-4 -39,33 5,8 5,9 5,8 5,7 6,8 7,7 6,7 8,7 7,7 8,6 9,6 7,5 8,4 8,4 8,3 8,3 9,3 10,3 9,2 10,1 11,2 10,1 h 11 12 1 12 11 l 10,-1 11,-1 10,-2 10,-2 10,-2 9,-3 9,-3 8,-3 9,-4 8,-4 7,-4 8,-5 7,-5 7,-6 3,-3 7,-7 6,-6 6,-7 5,-8 4,-8 5,-8 4,-8 3,-9 3,-8 3,-10 2,-9 2,-10 1,-11 1,-10 V 389 382 54 H 0 Z m -136,264 h -130 -13 -12 l -11,-1 -11,-1 -11,-2 -10,-1 -9,-3 -9,-2 -8,-3 -8,-3 -7,-3 -7,-4 -4,-3 -8,-6 -7,-7 -6,-7 -5,-7 -5,-9 -3,-8 -2,-9 -2,-10 v -10 -26 -11 l 2,-10 2,-9 3,-9 4,-8 5,-7 6,-7 7,-7 7,-5 7,-5 7,-4 9,-4 8,-4 9,-3 10,-2 9,-2 11,-1 11,-1 h 9 11 l 10,1 10,1 10,1 10,2 9,3 9,2 9,3 5,2 9,4 9,5 8,5 8,6 8,6 7,7 6,7 2,3 6,7 5,9 4,8 3,9 2,10 1,9 1,11 z" /><g
                 transform="translate(333.9999)"
                 id="g36"><path
                   id="path38"
                   style="fill:#000000;fill-opacity:1;fill-rule:nonzero;stroke:none"
                   d="m 0,0 h -111 l -11,1 -10,1 -9,3 -8,5 -7,5 -5,5 -6,7 -5,7 -3,9 -3,9 -1,10 v 6 432 h -96 v 54 h 62 l 12,1 10,3 7,4 3,2 4,7 2,9 1,11 v 6 112 h 57 V 554 H 8 V 500 H -117 V 54 H 0 Z" /><g
                   transform="translate(187.00002,705.00007)"
                   id="g40"><path
                     id="path42"
                     style="fill:#000000;fill-opacity:1;fill-rule:nonzero;stroke:none"
                     d="m -30,-705 v 554 H 31 V -705 Z M 12.916,87.425 21,85 l 7,-4 4,-3 6,-8 3,-9 1,-10 V 50 39 L 41,29 38,19 33,12 32,11 26,6 18,2 8,0 H 0 v 0 l -11,1 -10,2 -7,5 -4,3 -5,7 -4,9 -1,10 v 2 11 l 1,10 3,9 5,7 1,2 7,5 8,4 4.252,0.425 z" /><g
                     transform="translate(591.00013,-921.00018)"
                     id="g44"><path
                       id="path46"
                       style="fill:#000000;fill-opacity:1;fill-rule:nonzero;stroke:none"
                       d="m 0,0 v 305 h -3 l -5,-9 -5,-9 -6,-8 -5,-8 -7,-7 -6,-7 -7,-7 -7,-7 -8,-6 -8,-5 v -1 l -8,-5 -8,-4 -8,-4 -9,-3 -9,-3 -9,-3 -9,-2 -10,-2 -11,-1 -10,-1 h -11 -3 -11 l -10,1 -10,1 -10,1 -10,2 -10,2 -9,3 -9,3 -9,3 -8,4 -9,4 -8,5 -8,5 v 1 l -8,5 -8,6 -7,6 -7,6 -6,7 -6,7 -6,7 -6,8 -6,8 -5,9 -5,9 -4,9 -5,10 -1,2 -3,8 -3,9 -3,8 -3,9 -2,9 -2,9 -3,9 -1,10 -2,9 -2,10 -1,10 -1,11 -1,10 v 11 l -1,11 v 11 2 11 l 1,11 v 11 l 1,11 1,10 1,10 2,10 1,10 2,10 2,9 2,9 3,9 2,9 3,8 3,9 3,8 1,2 5,10 4,9 5,9 5,9 6,8 5,8 6,8 6,7 7,7 7,6 7,6 7,6 8,6 2,1 7,5 9,4 8,4 8,4 9,4 9,3 10,2 9,2 10,2 10,2 10,1 h 10 11 1 11 10 l 11,-1 10,-2 9,-2 10,-2 9,-3 9,-3 8,-4 8,-4 8,-4 3,-2 8,-5 8,-7 7,-6 7,-7 6,-7 6,-8 6,-7 5,-9 5,-8 4,-9 1,-1 h 3 v 88 H 62 V 0 Z m -158,258 10,1 h 10 l 10,1 10,2 9,2 10,3 9,3 9,4 2,1 9,4 9,5 8,5 8,6 7,6 7,7 6,7 3,4 6,8 4,8 4,9 3,9 3,9 1,10 1,10 v 3 220 l -1,10 -1,10 -2,9 -3,9 -4,9 -4,8 -6,8 -1,2 -6,7 -7,7 -7,6 -7,6 -9,5 -8,6 -9,4 -4,2 -9,3 -9,3 -9,3 -10,2 -9,2 -10,1 -10,1 h -11 -2 -11 l -11,-1 -10,-1 -10,-2 -9,-2 -9,-2 -9,-3 -9,-4 -8,-4 -8,-4 -8,-5 -7,-6 -7,-6 -7,-6 -6,-7 -6,-7 -5,-7 -5,-7 -5,-8 -4,-8 -4,-8 -4,-9 -3,-9 -3,-9 -2,-9 -2,-10 -2,-10 -1,-10 -1,-11 v -11 l -1,-10 v -78 l 1,-11 v -11 l 1,-10 1,-10 2,-10 2,-10 3,-9 3,-9 3,-9 3,-9 4,-8 5,-8 5,-8 5,-7 5,-7 5,-6 6,-7 7,-6 7,-6 7,-6 8,-5 8,-4 8,-4 9,-4 8,-3 10,-3 9,-2 10,-1 10,-2 h 11 l 10,-1 z" /><g
                       transform="translate(419.99996,203.00014)"
                       id="g48"><path
                         id="path50"
                         style="fill:#000000;fill-opacity:1;fill-rule:nonzero;stroke:none"
                         d="m 0,0 h -11 l -11,1 -10,1 -11,1 -10,1 -9,2 -10,2 -9,3 -9,2 -9,4 -8,3 -8,4 -8,4 h -1 l -8,5 -8,5 -8,5 -8,6 -8,5 -7,7 -7,6 -8,7 -6,7 -7,8 -7,7 -6,8 -1,2 45,36 7,-8 7,-8 7,-8 7,-7 7,-7 8,-6 7,-6 8,-5 8,-5 7,-5 3,-1 8,-4 9,-4 8,-4 9,-2 10,-3 9,-2 10,-2 10,-1 10,-1 H 2 4 16 l 11,1 11,1 10,2 9,2 9,3 9,3 8,4 8,4 7,5 5,3 7,6 6,7 6,7 4,8 4,9 3,9 2,9 2,10 v 11 1 11 l -1,10 -2,10 -3,9 -4,8 -5,8 -5,7 -6,6 -6,6 -6,4 -7,5 -8,4 -9,3 -9,4 -10,3 -11,2 -11,3 -10,1 -46,8 -10,1 -11,2 -10,3 -9,2 -10,3 -9,2 -9,3 -9,4 -9,3 -3,2 -9,4 -9,5 -8,6 -8,5 -7,7 -6,7 -6,7 -6,8 -5,8 -4,8 -3,8 -3,9 -3,9 -2,10 -1,10 -1,11 v 9 l 1,10 v 11 l 2,10 2,10 2,9 3,9 4,9 4,8 4,7 6,8 5,7 7,6 6,6 8,6 v 1 l 8,5 8,4 8,5 8,3 9,4 9,3 9,3 9,3 9,2 10,2 10,1 11,1 10,1 h 11 6 11 10 l 11,-1 10,-1 9,-2 9,-1 9,-2 9,-3 h 3 l 10,-4 9,-3 9,-4 9,-5 8,-4 9,-5 8,-6 7,-6 8,-6 7,-7 7,-7 7,-7 7,-7 3,-4 -41,-38 -6,7 -6,7 -7,6 -7,7 -8,6 -9,6 -8,6 -6,4 -8,4 -8,3 -8,4 -9,3 -9,2 -10,2 -10,1 -10,1 -11,1 H -7 -18 l -11,-1 -11,-1 -10,-2 -9,-2 -9,-3 -9,-3 -7,-4 -8,-5 -7,-5 -7,-6 -6,-7 -6,-7 -4,-8 -4,-8 -3,-9 -2,-10 -1,-10 v -7 -11 l 2,-11 2,-10 3,-9 4,-8 4,-7 6,-7 7,-6 2,-2 6,-4 7,-4 8,-4 8,-4 9,-3 10,-4 10,-3 11,-2 11,-2 9,-2 44,-7 12,-2 11,-2 11,-2 11,-3 10,-3 10,-3 9,-3 9,-4 8,-4 8,-4 7,-5 7,-4 7,-5 6,-5 6,-7 6,-7 5,-7 5,-8 4,-8 4,-8 3,-9 2,-10 2,-10 2,-10 1,-10 v -11 -11 l -1,-10 -1,-11 -2,-9 -3,-10 -3,-9 -3,-8 -4,-9 -4,-8 -3,-4 -5,-8 -6,-7 -7,-8 -7,-6 -7,-6 -8,-6 -8,-6 -9,-4 -9,-5 h -1 L 98,16 89,13 81,10 72,8 62,6 53,4 43,3 33,2 22,1 11,0 Z" /><g
                         transform="translate(-3976,-1993.0001)"
                         id="g52"><path
                           id="path54"
                           style="fill:none;stroke:#000000;stroke-width:6.25;stroke-linecap:butt;stroke-linejoin:miter;stroke-miterlimit:10;stroke-dasharray:none;stroke-opacity:1"
                           d="m 4606,1992 v 725 h 725 v -725 h -725" /><path
                           id="path56"
                           style="fill:#000000;fill-opacity:1;fill-rule:nonzero;stroke:#000000;stroke-width:6.25;stroke-linecap:butt;stroke-linejoin:miter;stroke-miterlimit:10;stroke-dasharray:none;stroke-opacity:1"
                           d="m 5331,2717 h -725 l 725,-57 z m -725,0 725,-57 h -725 z" /><path
                           id="path58"
                           style="fill:#000000;fill-opacity:1;fill-rule:nonzero;stroke:#000000;stroke-width:6.25;stroke-linecap:butt;stroke-linejoin:miter;stroke-miterlimit:10;stroke-dasharray:none;stroke-opacity:1"
                           d="m 5331,2660 h -57 l 57,-610 z m -57,0 57,-610 h -57 z" /><path
                           id="path60"
                           style="fill:#000000;fill-opacity:1;fill-rule:nonzero;stroke:#000000;stroke-width:6.25;stroke-linecap:butt;stroke-linejoin:miter;stroke-miterlimit:10;stroke-dasharray:none;stroke-opacity:1"
                           d="m 4664,2660 h -58 l 58,-610 z m -58,0 58,-610 h -58 z" /><path
                           id="path62"
                           style="fill:#000000;fill-opacity:1;fill-rule:nonzero;stroke:#000000;stroke-width:6.25;stroke-linecap:butt;stroke-linejoin:miter;stroke-miterlimit:10;stroke-dasharray:none;stroke-opacity:1"
                           d="m 5331,2050 h -725 l 725,-58 z m -725,0 725,-58 h -725 z" /><path
                           id="path64"
                           style="fill:none;stroke:#000000;stroke-width:6.25;stroke-linecap:butt;stroke-linejoin:miter;stroke-miterlimit:10;stroke-dasharray:none;stroke-opacity:1"
                           d="m 4664,2050 v 610 h 610 v -610 h -610" /></g></g></g></g></g></g></g></g></g></g></g></svg>