<?xml version="1.0" encoding="UTF-8" standalone="no"?>
<svg
   xmlns:dc="http://purl.org/dc/elements/1.1/"
   xmlns:cc="http://creativecommons.org/ns#"
   xmlns:rdf="http://www.w3.org/1999/02/22-rdf-syntax-ns#"
   xmlns:svg="http://www.w3.org/2000/svg"
   xmlns="http://www.w3.org/2000/svg"
   viewBox="0 0 737.45349 164.78735"
   height="164.78735"
   width="737.45349"
   xml:space="preserve"
   id="svg2"
   version="1.1"><metadata
     id="metadata8"><rdf:RDF><cc:Work
         rdf:about=""><dc:format>image/svg+xml</dc:format><dc:type
           rdf:resource="http://purl.org/dc/dcmitype/StillImage" /></cc:Work></rdf:RDF></metadata><defs
     id="defs6"><clipPath
       id="clipPath16"
       clipPathUnits="userSpaceOnUse"><path
         id="path14"
         d="M 721.916,563.78 H 5331 V 1593.701 H 721.916 Z" /></clipPath></defs><g
     transform="matrix(0.16,0,0,-0.16,-115.50656,254.99216)"
     id="g10"><g
       clip-path="url(#clipPath16)"
       id="g12"><g
         transform="translate(961.00011,768.00008)"
         id="g18"><path
           id="path20"
           style="fill:#000000;fill-opacity:1;fill-rule:nonzero;stroke:none"
           d="M -239.084,102.936 -146,198 l 8,-8 7,-7 7,-7 8,-6 7,-6 8,-6 8,-5 9,-5 6,-4 8,-4 9,-3 9,-4 9,-2 10,-2 9,-2 10,-1 10,-1 h 9 13 l 12,1 10,2 9,2 9,3 7,3 6,4 7,7 5,7 4,9 2,9 v 7 l -1,11 -2,9 -5,8 -5,5 -6,4 -8,3 -9,4 -11,2 -10,2 -62,7 -11,2 -11,2 -10,2 -10,2 -10,3 -10,2 -9,3 -9,3 -8,4 -8,3 -8,4 -2,1 -9,5 -9,5 -8,6 -8,6 -7,6 -6,7 -6,7 -6,8 -5,8 -4,8 -4,8 -3,9 -3,9 -3,9 -2,10 -1,10 -1,10 v 11 3 10 l 1,10 1,10 2,9 2,10 2,9 3,9 4,8 4,9 5,8 5,8 5,7 6,8 7,7 6,7 6,5 7,6 7,5 8,5 7,4 8,5 8,4 9,3 8,3 9,3 9,3 10,2 10,2 10,2 10,2 11,1 h 10 l 11,1 H 0 11 22 l 11,-1 10,-1 h 10 l 10,-1 9,-2 9,-1 9,-2 8,-1 2,-1 10,-3 10,-3 10,-3 9,-4 9,-4 8,-4 9,-4 8,-5 8,-6 7,-5 8,-6 8,-7 7,-6 8,-7 7,-7 5,-5 -92,-94 -7,7 -8,6 -7,7 -8,5 -8,6 -9,5 -8,5 -5,2 -10,4 -9,3 -10,3 -9,2 -10,2 -10,1 H 12 8 -4 l -12,-1 -10,-2 -8,-2 -8,-3 -6,-4 -1,-1 -8,-6 -5,-8 -4,-8 -1,-9 -1,-3 1,-11 3,-9 4,-8 5,-7 6,-5 7,-4 9,-3 10,-3 12,-3 h 3 l 64,-9 12,-2 11,-2 11,-2 10,-2 11,-3 9,-3 10,-3 9,-3 9,-4 8,-4 8,-4 8,-4 7,-5 7,-4 6,-6 5,-3 6,-7 6,-7 6,-7 5,-8 5,-7 4,-9 3,-8 3,-9 3,-10 2,-9 2,-10 1,-10 v -11 -5 -10 l -1,-10 -1,-10 -2,-9 -3,-10 -3,-9 -3,-9 -4,-8 -5,-9 -5,-8 -3,-5 -6,-8 -6,-7 -6,-7 -7,-7 -7,-6 -8,-6 -8,-6 -8,-6 -9,-5 -9,-4 -9,-5 -2,-1 -8,-3 -8,-3 -9,-3 L 94,13 85,10 75,8 66,6 56,5 46,3 36,2 26,1 H 15 4 L 0,0 -12,1 h -11 l -10,1 -11,1 -10,1 -10,1 -10,2 -9,2 -10,2 -9,2 -8,3 -9,3 -8,3 -8,4 -4,2 -9,4 -8,4 -9,5 -8,5 -8,5 -8,6 -8,6 -8,6 -7,6 -8,7 -7,7 -7,7 -5.084,5.084 z" /><g
           transform="translate(647.00004,12.99998)"
           id="g22"><path
             id="path24"
             style="fill:#000000;fill-opacity:1;fill-rule:nonzero;stroke:none"
             d="m 0,0 h -95 l -12,1 h -11 l -11,1 -10,2 -10,2 -9,2 -10,3 -8,3 -9,4 -8,4 -7,4 -7,5 -7,6 -7,5 v 1 l -6,6 -5,7 -6,7 -4,7 -4,8 -4,8 -4,9 -2,9 -3,10 -2,9 -1,11 -1,10 -1,11 v 11 278 h -80 v 125 h 40 l 12,1 10,1 9,3 7,5 5,5 1,1 5,7 3,8 2,10 2,10 v 10 93 h 144 V 569 H 9 V 444 H -104 V 125 H 0 Z" /><g
             transform="translate(628.99998)"
             id="g26"><path
               id="path28"
               style="fill:#000000;fill-opacity:1;fill-rule:nonzero;stroke:none"
               d="m 0,0 h -89 l -10,1 -10,1 -9,3 -9,3 -9,4 -7,4 -8,5 -8,5 -7,7 -6,7 -6,8 -5,9 -1,2 -4,9 -4,9 -2,9 -3,10 v 4 h -7 l -2,-10 -4,-10 -3,-9 -5,-8 -5,-8 -5,-8 -6,-7 -6,-7 -7,-6 -8,-6 -6,-4 -8,-5 -8,-4 -8,-4 -9,-4 -9,-3 -9,-2 -9,-3 -10,-2 -10,-1 -10,-1 h -11 l -8,-1 -12,1 h -11 l -10,1 -11,2 -10,2 -9,2 -9,3 -9,3 -9,4 -8,4 -7,4 -8,5 -7,5 -6,6 -5,5 -7,7 -6,7 -5,8 -5,7 -5,8 -4,9 -3,8 -3,9 -3,10 -2,9 -1,10 -1,11 -1,10 v 6 11 l 1,11 1,10 2,10 3,9 2,9 4,9 3,8 5,8 5,8 4,7 6,7 6,7 7,6 7,6 8,6 8,5 8,5 9,5 9,5 10,4 7,2 8,3 9,3 8,2 9,2 10,2 9,2 10,1 10,2 10,1 10,1 h 11 l 10,1 h 12 3 90 v 35 l -1,11 -1,11 -2,9 -3,10 -4,8 -4,8 -5,7 -2,2 -6,6 -6,5 -8,4 -8,3 -10,3 -10,2 -11,1 h -12 -2 -11 l -11,-1 -10,-1 -9,-3 -10,-2 -8,-4 -8,-4 -7,-4 -1,-1 -9,-7 -7,-6 -8,-7 -7,-7 -6,-7 -6,-7 -4,-6 -95,85 6,8 6,8 6,7 6,8 7,7 7,6 8,7 7,6 8,6 8,5 8,6 9,5 1,1 8,3 7,4 8,3 9,3 8,2 9,3 9,2 10,2 10,1 10,2 10,1 11,1 h 11 l 12,1 h 10 12 l 12,-1 h 11 l 11,-1 11,-1 10,-2 10,-2 10,-2 10,-2 9,-2 9,-3 9,-3 8,-4 8,-3 8,-4 8,-4 7,-5 7,-4 6,-5 6,-5 7,-6 6,-7 6,-7 5,-7 5,-7 5,-8 4,-8 4,-8 4,-9 3,-9 3,-9 2,-9 2,-10 2,-10 1,-10 1,-11 1,-11 V 374 125 H 0 Z m -213,240 h -78 l -12,-1 h -12 l -10,-2 -10,-2 -8,-2 -8,-4 -7,-3 -4,-2 -7,-6 -6,-7 -5,-8 -3,-9 -2,-9 -1,-9 v -16 l 1,-11 2,-10 4,-9 4,-7 6,-7 3,-2 7,-4 8,-4 9,-3 9,-2 11,-2 h 11 11 l 10,1 10,2 9,2 9,3 9,3 9,5 8,6 7,6 3,3 5,8 3,8 3,10 1,10 1,7 z" /><g
               transform="translate(400.99997)"
               id="g30"><path
                 id="path32"
                 style="fill:#000000;fill-opacity:1;fill-rule:nonzero;stroke:none"
                 d="m 0,0 h -95 l -11,1 h -11 l -11,1 -11,2 -9,2 -10,2 -9,3 -9,3 -8,4 -8,4 -8,4 -7,5 -7,6 -6,5 v 1 l -6,6 -6,7 -5,7 -5,7 -4,8 -4,8 -3,9 -3,9 -2,10 -2,9 -2,11 -1,10 -1,11 v 11 278 h -80 v 125 h 40 l 12,1 10,1 9,3 7,5 6,5 1,1 4,7 3,8 3,10 1,10 1,10 v 93 h 143 V 569 H 9 V 444 H -104 V 125 H 0 Z" /><g
                 transform="translate(200.99996,630.0001)"
                 id="g34"><path
                   id="path36"
                   style="fill:#000000;fill-opacity:1;fill-rule:nonzero;stroke:none"
                   d="m 0,0 h -12 l -11,1 -11,2 -9,2 -8,4 -8,4 -7,4 -5,5 -6,8 -6,7 -4,9 -3,9 -2,9 -1,10 v 5 23 11 l 2,9 2,10 4,8 5,8 6,8 3,4 6,5 7,4 8,4 9,3 9,3 10,1 12,1 H 0 12 l 11,-1 10,-2 9,-2 9,-3 8,-4 7,-5 5,-4 6,-8 5,-7 4,-9 4,-9 2,-9 1,-10 V 102 79 L 92,68 91,59 88,49 84,41 80,33 74,25 71,22 65,17 58,12 50,8 42,5 32,3 22,1 11,0 Z M -80,-630 V -61 H 80 v -569 z" /><g
                   transform="translate(578.00015,-846.0001)"
                   id="g38"><path
                     id="path40"
                     style="fill:#000000;fill-opacity:1;fill-rule:nonzero;stroke:none"
                     d="m 0,0 v 312 h -6 l -2,-9 -4,-9 -4,-9 -4,-8 -5,-8 -6,-8 -7,-7 -7,-7 -7,-7 -8,-5 -8,-6 -8,-5 -9,-4 -9,-4 -9,-3 -9,-3 -9,-3 -10,-1 -9,-2 h -10 l -8,-1 -11,1 h -11 l -10,1 -10,2 -10,2 -9,2 -10,2 -8,4 -9,3 -9,4 -8,4 -8,5 -7,5 -8,6 -7,5 -7,6 -6,7 -6,7 -6,7 -6,8 -5,8 -6,9 -4,9 -5,9 -4,10 -4,10 -3,8 -3,8 -2,8 -3,9 -2,9 -2,9 -2,9 -1,10 -2,10 -1,9 -1,11 -1,10 -1,11 v 10 l -1,11 v 12 8 12 11 l 1,11 v 11 l 1,10 1,10 1,10 2,10 1,10 2,9 2,10 2,9 2,8 2,9 3,8 3,9 2,6 4,10 4,9 5,10 5,8 5,9 5,8 6,8 6,7 6,7 6,7 7,6 7,6 8,5 7,5 8,5 8,4 9,4 8,3 9,3 10,3 9,2 10,2 10,1 10,1 11,1 h 11 10 l 10,-1 10,-1 9,-2 9,-3 10,-3 9,-3 8,-4 9,-4 8,-5 6,-4 8,-7 8,-6 7,-7 6,-7 6,-8 5,-8 4,-8 4,-9 4,-9 2,-9 h 6 v 95 H 160 V 0 Z m -105,333 10,1 10,1 10,1 10,2 8,3 6,2 9,4 8,6 8,6 7,6 6,7 5,8 3,9 3,9 1,10 1,9 v 168 l -1,10 -1,10 -3,9 -4,9 -4,7 -6,7 -7,7 -8,5 -9,5 -8,4 -9,3 -9,3 -9,2 -10,1 -11,1 h -6 -11 l -9,-2 -10,-2 -9,-3 -8,-3 -8,-5 -8,-5 -7,-7 -5,-4 -6,-7 -5,-8 -5,-8 -4,-8 -3,-9 -3,-9 -2,-9 -1,-11 -1,-10 v -8 -99 -10 l 1,-11 2,-10 2,-9 3,-9 4,-9 4,-8 5,-8 5,-7 4,-4 7,-7 7,-6 8,-6 8,-4 9,-4 9,-2 9,-2 10,-1 z" /><g
                     transform="translate(501.99993,203.00003)"
                     id="g42"><path
                       id="path44"
                       style="fill:#000000;fill-opacity:1;fill-rule:nonzero;stroke:none"
                       d="m 0,0 -11,1 h -11 l -11,1 -10,1 -11,1 -10,1 -9,2 -10,2 -9,2 -9,2 -9,3 -8,3 -9,3 -8,4 -4,2 -8,4 -9,4 -8,5 -9,5 -8,5 -8,6 -7,6 -8,6 -8,6 -7,7 -7,7 -7,7 -6,6 94,96 7,-8 7,-7 8,-7 7,-6 8,-6 8,-6 8,-5 8,-5 6,-4 9,-4 8,-3 9,-4 9,-2 10,-2 10,-2 10,-1 10,-1 h 8 13 l 12,1 10,2 10,2 8,3 7,3 6,4 7,7 6,7 3,9 2,9 1,7 -1,11 -3,9 -4,8 -5,5 -7,4 -8,3 -9,4 -11,2 -10,2 -61,7 -11,2 -11,2 -11,2 -10,2 -10,3 -9,2 -9,3 -9,3 -9,4 -8,3 -8,4 -1,1 -10,5 -8,5 -9,6 -7,6 -7,6 -7,7 -6,7 -5,8 -5,8 -5,8 -4,8 -3,9 -3,9 -2,9 -2,10 -2,10 v 10 l -1,11 v 3 10 l 1,10 1,10 2,9 2,10 3,9 3,9 3,8 4,9 5,8 5,8 6,7 5,8 7,7 7,7 6,5 7,6 7,5 7,5 8,4 7,5 9,4 8,3 9,3 9,3 9,3 9,2 10,2 10,2 10,2 11,1 h 11 l 11,1 h 9 11 12 l 10,-1 11,-1 h 10 l 9,-1 10,-2 9,-1 8,-2 9,-1 2,-1 10,-3 10,-3 9,-3 9,-4 9,-4 9,-4 8,-4 8,-5 8,-6 8,-5 7,-6 8,-7 8,-6 7,-7 7,-7 6,-5 -92,-94 -8,7 -7,6 -8,7 -8,5 -8,6 -8,5 -9,5 -5,2 -9,4 -10,3 -9,3 -10,2 -9,2 -10,1 H 12 9 -4 l -11,-1 -10,-2 -9,-2 -8,-3 -6,-4 -1,-1 -7,-6 -6,-8 -3,-8 -2,-9 v -3 l 1,-11 2,-9 4,-8 6,-7 5,-5 7,-4 9,-3 10,-3 12,-3 h 3 l 64,-9 12,-2 11,-2 11,-2 11,-2 10,-3 10,-3 9,-3 9,-3 9,-4 9,-4 8,-4 7,-4 7,-5 7,-4 7,-6 4,-3 7,-7 6,-7 5,-7 6,-8 4,-7 4,-9 4,-8 3,-9 2,-10 2,-9 2,-10 1,-10 v -11 l 1,-5 -1,-10 -1,-10 -1,-10 -2,-9 -2,-10 -3,-9 -4,-9 -4,-8 -4,-9 -5,-8 -4,-5 -5,-8 -6,-7 -7,-7 -7,-7 -7,-6 -7,-6 -8,-6 -8,-6 -9,-5 -9,-4 -10,-5 -1,-1 -9,-3 -8,-3 -9,-3 L 94,13 85,10 76,8 66,6 57,5 47,3 36,2 26,1 H 16 5 Z" /><g
                       transform="translate(-3919.0001,-768.00008)"
                       id="g46"><path
                         id="path48"
                         style="fill:none;stroke:#000000;stroke-width:6.25;stroke-linecap:butt;stroke-linejoin:miter;stroke-miterlimit:10;stroke-dasharray:none;stroke-opacity:1"
                         d="m 4606,781 v 726 h 725 V 781 h -725" /><path
                         id="path50"
                         style="fill:#000000;fill-opacity:1;fill-rule:nonzero;stroke:#000000;stroke-width:6.25;stroke-linecap:butt;stroke-linejoin:miter;stroke-miterlimit:10;stroke-dasharray:none;stroke-opacity:1"
                         d="m 5331,1507 h -725 l 725,-133 z m -725,0 725,-133 h -725 z" /><path
                         id="path52"
                         style="fill:#000000;fill-opacity:1;fill-rule:nonzero;stroke:#000000;stroke-width:6.25;stroke-linecap:butt;stroke-linejoin:miter;stroke-miterlimit:10;stroke-dasharray:none;stroke-opacity:1"
                         d="m 5331,1374 h -132 l 132,-460 z m -132,0 132,-460 h -132 z" /><path
                         id="path54"
                         style="fill:#000000;fill-opacity:1;fill-rule:nonzero;stroke:#000000;stroke-width:6.25;stroke-linecap:butt;stroke-linejoin:miter;stroke-miterlimit:10;stroke-dasharray:none;stroke-opacity:1"
                         d="m 4739,1374 h -133 l 133,-460 z m -133,0 133,-460 h -133 z" /><path
                         id="path56"
                         style="fill:#000000;fill-opacity:1;fill-rule:nonzero;stroke:#000000;stroke-width:6.25;stroke-linecap:butt;stroke-linejoin:miter;stroke-miterlimit:10;stroke-dasharray:none;stroke-opacity:1"
                         d="m 5331,914 h -725 l 725,-133 z m -725,0 725,-133 h -725 z" /><path
                         id="path58"
                         style="fill:none;stroke:#000000;stroke-width:6.25;stroke-linecap:butt;stroke-linejoin:miter;stroke-miterlimit:10;stroke-dasharray:none;stroke-opacity:1"
                         d="m 4739,914 v 460 h 460 V 914 h -460" /></g></g></g></g></g></g></g></g></g></g></svg>